<svg width="33" height="33" viewBox="0 0 33 33" fill="none" xmlns="http://www.w3.org/2000/svg">
<g clip-path="url(#clip0_1526_3107)">
<path d="M2.91211 23.2941H8.96256L4.02104 31.53L5.68553 32.5288L11.2264 23.2941H15.5298V33H17.4709V23.2941H21.7743L27.3152 32.5288L28.9797 31.53L24.0381 23.2941H30.0886V21.3529H2.91211V23.2941Z" fill="#003B71"/>
<path d="M0.970703 0V18.0392L11.6472 7.36262L16.1781 11.8936L23.5002 6.43254L32.0295 18.1248V0H0.970703ZM7.76482 6.79412H5.82364V3.88235H7.76482V6.79412Z" fill="#003B71"/>
<path d="M11.6471 10.1079L2.34326 19.4118H20.951L11.6471 10.1079Z" fill="#003B71"/>
<path d="M17.5654 13.2807L23.6964 19.4117H30.5657L23.0883 9.1615L17.5654 13.2807Z" fill="#003B71"/>
</g>
<defs>
<clipPath id="clip0_1526_3107">
<rect width="33" height="33" fill="white"/>
</clipPath>
</defs>
</svg>
