<svg width="92" height="92" viewBox="0 0 92 92" fill="none" xmlns="http://www.w3.org/2000/svg">
<g filter="url(#filter0_d_1491_18096)">
<circle cx="46" cy="42" r="32" fill="#003B71"/>
<circle cx="46" cy="42" r="31.5" stroke="url(#paint0_linear_1491_18096)"/>
</g>
<path d="M46.0001 36.3334C42.8692 36.3334 40.3334 38.8692 40.3334 42.0001C40.3334 45.1309 42.8692 47.6667 46.0001 47.6667C49.1309 47.6667 51.6667 45.1309 51.6667 42.0001C51.6667 38.8692 49.1309 36.3334 46.0001 36.3334ZM58.6651 40.5834C58.0134 34.6759 53.3242 29.9867 47.4167 29.3351V26.4167H44.5834V29.3351C38.6759 29.9867 33.9867 34.6759 33.3351 40.5834H30.4167V43.4167H33.3351C33.9867 49.3242 38.6759 54.0134 44.5834 54.6651V57.5834H47.4167V54.6651C53.3242 54.0134 58.0134 49.3242 58.6651 43.4167H61.5834V40.5834H58.6651V40.5834ZM46.0001 51.9167C40.5176 51.9167 36.0834 47.4826 36.0834 42.0001C36.0834 36.5176 40.5176 32.0834 46.0001 32.0834C51.4826 32.0834 55.9167 36.5176 55.9167 42.0001C55.9167 47.4826 51.4826 51.9167 46.0001 51.9167Z" fill="white"/>
<defs>
<filter id="filter0_d_1491_18096" x="0" y="0" width="92" height="92" filterUnits="userSpaceOnUse" color-interpolation-filters="sRGB">
<feFlood flood-opacity="0" result="BackgroundImageFix"/>
<feColorMatrix in="SourceAlpha" type="matrix" values="0 0 0 0 0 0 0 0 0 0 0 0 0 0 0 0 0 0 127 0" result="hardAlpha"/>
<feOffset dy="4"/>
<feGaussianBlur stdDeviation="7"/>
<feColorMatrix type="matrix" values="0 0 0 0 0 0 0 0 0 0 0 0 0 0 0 0 0 0 0.25 0"/>
<feBlend mode="normal" in2="BackgroundImageFix" result="effect1_dropShadow_1491_18096"/>
<feBlend mode="normal" in="SourceGraphic" in2="effect1_dropShadow_1491_18096" result="shape"/>
</filter>
<linearGradient id="paint0_linear_1491_18096" x1="11.7143" y1="52" x2="79.6419" y2="52.1999" gradientUnits="userSpaceOnUse">
<stop stop-color="#F5F7FB"/>
<stop offset="0.0001" stop-color="#F4F7FB"/>
<stop offset="0.203125" stop-color="#F5F7FA"/>
<stop offset="0.40625" stop-color="#ECF1FF"/>
<stop offset="1" stop-color="white"/>
</linearGradient>
</defs>
</svg>
